<?xml version="1.0" encoding="UTF-8" standalone="no"?>
<!DOCTYPE svg PUBLIC "-//W3C//DTD SVG 1.1//EN"
 "http://www.w3.org/Graphics/SVG/1.1/DTD/svg11.dtd">
<!-- Generated by graphviz version 2.43.0 (0)
 -->
<!-- Title: %3 Pages: 1 -->
<svg width="1126pt" height="165pt"
 viewBox="0.00 0.00 1126.00 164.74" xmlns="http://www.w3.org/2000/svg" xmlns:xlink="http://www.w3.org/1999/xlink">
<g id="graph0" class="graph" transform="scale(1 1) rotate(0) translate(36 128.74)">
<title>%3</title>
<polygon fill="dimgray" stroke="transparent" points="-36,36 -36,-128.74 1090,-128.74 1090,36 -36,36"/>
<text text-anchor="middle" x="527" y="-77.54" font-family="Helvetica,sans-Serif" font-size="14.00">Sweep&#39;s Plan &amp; Progress</text>
<!-- start -->
<g id="node1" class="node">
<title>start</title>
</g>
<!-- 1fc904e6&#45;9315&#45;490b&#45;8f34&#45;666d244e0fb4 -->
<g id="node3" class="node">
<title>1fc904e6&#45;9315&#45;490b&#45;8f34&#45;666d244e0fb4</title>
<ellipse fill="yellow" stroke="black" cx="279.5" cy="-26.87" rx="226.96" ry="26.74"/>
<text text-anchor="middle" x="279.5" y="-30.67" font-family="Helvetica,sans-Serif" font-size="14.00">⋯ Modify</text>
<text text-anchor="middle" x="279.5" y="-15.67" font-family="Helvetica,sans-Serif" font-size="14.00">frontend/src/components/SettingsDialog.tsx</text>
</g>
<!-- start&#45;&gt;1fc904e6&#45;9315&#45;490b&#45;8f34&#45;666d244e0fb4 -->
<g id="edge2" class="edge">
<title>start&#45;&gt;1fc904e6&#45;9315&#45;490b&#45;8f34&#45;666d244e0fb4</title>
<path fill="none" stroke="black" d="M1.3,-26.87C4.89,-26.87 20.31,-26.87 42.18,-26.87"/>
<polygon fill="black" stroke="black" points="42.3,-30.37 52.3,-26.87 42.3,-23.37 42.3,-30.37"/>
<text text-anchor="middle" x="26.76" y="-33.67" font-family="Helvetica,sans-Serif" font-size="14.00">Start</text>
</g>
<!-- end -->
<g id="node2" class="node">
<title>end</title>
</g>
<!-- c4598c4d&#45;3e28&#45;4ee8&#45;9f72&#45;2ea02a9f889c -->
<g id="node4" class="node">
<title>c4598c4d&#45;3e28&#45;4ee8&#45;9f72&#45;2ea02a9f889c</title>
<ellipse fill="white" stroke="black" cx="768.5" cy="-26.87" rx="226.96" ry="26.74"/>
<text text-anchor="middle" x="768.5" y="-30.67" font-family="Helvetica,sans-Serif" font-size="14.00">▶ Modify</text>
<text text-anchor="middle" x="768.5" y="-15.67" font-family="Helvetica,sans-Serif" font-size="14.00">frontend/src/components/SettingsDialog.tsx</text>
</g>
<!-- 1fc904e6&#45;9315&#45;490b&#45;8f34&#45;666d244e0fb4&#45;&gt;c4598c4d&#45;3e28&#45;4ee8&#45;9f72&#45;2ea02a9f889c -->
<g id="edge1" class="edge">
<title>1fc904e6&#45;9315&#45;490b&#45;8f34&#45;666d244e0fb4&#45;&gt;c4598c4d&#45;3e28&#45;4ee8&#45;9f72&#45;2ea02a9f889c</title>
<path fill="none" stroke="black" d="M506.81,-26.87C514.89,-26.87 522.98,-26.87 531.07,-26.87"/>
<polygon fill="black" stroke="black" points="531.31,-30.37 541.31,-26.87 531.31,-23.37 531.31,-30.37"/>
</g>
<!-- c4598c4d&#45;3e28&#45;4ee8&#45;9f72&#45;2ea02a9f889c&#45;&gt;end -->
<g id="edge3" class="edge">
<title>c4598c4d&#45;3e28&#45;4ee8&#45;9f72&#45;2ea02a9f889c&#45;&gt;end</title>
<path fill="none" stroke="black" d="M995.48,-26.87C1015.73,-26.87 1032.41,-26.87 1042.61,-26.87"/>
<polygon fill="black" stroke="black" points="1042.88,-30.37 1052.88,-26.87 1042.88,-23.37 1042.88,-30.37"/>
<text text-anchor="middle" x="1024.24" y="-33.67" font-family="Helvetica,sans-Serif" font-size="14.00">Finish</text>
</g>
</g>
</svg>
