<?xml version="1.0" encoding="UTF-8" standalone="no"?>
<!DOCTYPE svg PUBLIC "-//W3C//DTD SVG 1.1//EN"
 "http://www.w3.org/Graphics/SVG/1.1/DTD/svg11.dtd">
<!-- Generated by graphviz version 2.43.0 (0)
 -->
<!-- Title: %3 Pages: 1 -->
<svg width="638pt" height="165pt"
 viewBox="0.00 0.00 638.00 164.74" xmlns="http://www.w3.org/2000/svg" xmlns:xlink="http://www.w3.org/1999/xlink">
<g id="graph0" class="graph" transform="scale(1 1) rotate(0) translate(36 128.74)">
<title>%3</title>
<polygon fill="dimgray" stroke="transparent" points="-36,36 -36,-128.74 602,-128.74 602,36 -36,36"/>
<text text-anchor="middle" x="283" y="-77.54" font-family="Helvetica,sans-Serif" font-size="14.00">Sweep&#39;s Plan &amp; Progress</text>
<!-- start -->
<g id="node1" class="node">
<title>start</title>
</g>
<!-- d1a7e6d5&#45;7d8b&#45;4c2c&#45;a9db&#45;9203de61e11d -->
<g id="node3" class="node">
<title>d1a7e6d5&#45;7d8b&#45;4c2c&#45;a9db&#45;9203de61e11d</title>
<ellipse fill="#0ee832" stroke="black" cx="150.5" cy="-26.87" rx="97.66" ry="26.74"/>
<text text-anchor="middle" x="150.5" y="-30.67" font-family="Helvetica,sans-Serif" font-size="14.00">✓ Create</text>
<text text-anchor="middle" x="150.5" y="-15.67" font-family="Helvetica,sans-Serif" font-size="14.00">backend/server.js</text>
</g>
<!-- start&#45;&gt;d1a7e6d5&#45;7d8b&#45;4c2c&#45;a9db&#45;9203de61e11d -->
<g id="edge2" class="edge">
<title>start&#45;&gt;d1a7e6d5&#45;7d8b&#45;4c2c&#45;a9db&#45;9203de61e11d</title>
<path fill="none" stroke="black" d="M1.17,-26.87C4.67,-26.87 21.53,-26.87 42.75,-26.87"/>
<polygon fill="black" stroke="black" points="42.77,-30.37 52.77,-26.87 42.77,-23.37 42.77,-30.37"/>
<text text-anchor="middle" x="26.96" y="-33.67" font-family="Helvetica,sans-Serif" font-size="14.00">Start</text>
</g>
<!-- end -->
<g id="node2" class="node">
<title>end</title>
</g>
<!-- 5ca39ff2&#45;6c38&#45;44ce&#45;86e9&#45;53b04ef31a66 -->
<g id="node4" class="node">
<title>5ca39ff2&#45;6c38&#45;44ce&#45;86e9&#45;53b04ef31a66</title>
<ellipse fill="#0ee832" stroke="black" cx="395.5" cy="-26.87" rx="111.95" ry="26.74"/>
<text text-anchor="middle" x="395.5" y="-30.67" font-family="Helvetica,sans-Serif" font-size="14.00">✓ Modify</text>
<text text-anchor="middle" x="395.5" y="-15.67" font-family="Helvetica,sans-Serif" font-size="14.00">frontend/src/App.tsx</text>
</g>
<!-- d1a7e6d5&#45;7d8b&#45;4c2c&#45;a9db&#45;9203de61e11d&#45;&gt;5ca39ff2&#45;6c38&#45;44ce&#45;86e9&#45;53b04ef31a66 -->
<g id="edge1" class="edge">
<title>d1a7e6d5&#45;7d8b&#45;4c2c&#45;a9db&#45;9203de61e11d&#45;&gt;5ca39ff2&#45;6c38&#45;44ce&#45;86e9&#45;53b04ef31a66</title>
<path fill="none" stroke="black" d="M248.12,-26.87C256.51,-26.87 264.9,-26.87 273.29,-26.87"/>
<polygon fill="black" stroke="black" points="273.52,-30.37 283.52,-26.87 273.52,-23.37 273.52,-30.37"/>
</g>
<!-- 5ca39ff2&#45;6c38&#45;44ce&#45;86e9&#45;53b04ef31a66&#45;&gt;end -->
<g id="edge3" class="edge">
<title>5ca39ff2&#45;6c38&#45;44ce&#45;86e9&#45;53b04ef31a66&#45;&gt;end</title>
<path fill="none" stroke="black" d="M507.47,-26.87C526.85,-26.87 544.14,-26.87 554.71,-26.87"/>
<polygon fill="black" stroke="black" points="554.83,-30.37 564.83,-26.87 554.83,-23.37 554.83,-30.37"/>
<text text-anchor="middle" x="536.11" y="-33.67" font-family="Helvetica,sans-Serif" font-size="14.00">Finish</text>
</g>
</g>
</svg>
